<svg width="181" height="41" viewBox="0 0 181 41" fill="none" xmlns="http://www.w3.org/2000/svg">
<path fill-rule="evenodd" clip-rule="evenodd" d="M17.8997 40.3689C27.7854 40.3689 35.7993 32.3288 35.7993 22.4108C35.7993 20.2018 35.4018 18.086 34.6746 16.1314C34.6527 16.1919 34.5493 16.3728 34.0608 16.7292C33.8715 16.8673 33.7533 16.9517 33.6701 17.0112C33.5752 17.079 33.5258 17.1143 33.4684 17.1596C34.0208 18.8088 34.3201 20.5746 34.3201 22.4105C34.3201 31.5089 26.9685 38.8845 17.8997 38.8845C8.83103 38.8845 1.47938 31.5089 1.47938 22.4105C1.47938 13.3122 8.83103 5.93652 17.8997 5.93652C21.6783 5.93652 25.1588 7.217 27.9337 9.36904C27.7404 9.01264 27.3899 8.69728 27.0174 8.36214C26.7481 8.11985 26.4674 7.86723 26.2262 7.5813C25.7949 7.06983 25.7457 6.40701 25.7401 6.2625C23.3723 5.1032 20.7117 4.45264 17.8997 4.45264C8.01396 4.45264 0 12.4928 0 22.4108C0 32.3288 8.01396 40.3689 17.8997 40.3689Z" fill="#FF5757"/>
<path fill-rule="evenodd" clip-rule="evenodd" d="M32.7677 17.1268C33.3886 18.8199 33.7276 20.6498 33.7276 22.5591C33.7276 31.2476 26.7071 38.291 18.0469 38.291C9.3867 38.291 2.36621 31.2476 2.36621 22.5591C2.36621 13.8706 9.3867 6.82715 18.0469 6.82715C22.4602 6.82715 26.4477 8.65633 29.2972 11.6002C29.2827 11.2924 29.1749 10.5603 28.5447 9.62858C27.9535 8.75451 27.3063 8.07558 26.8641 7.63187C26.8272 7.59492 26.7889 7.55828 26.75 7.5211C26.3214 7.11181 25.8247 6.63733 26.5545 4.96959C27.3506 3.15036 31.8175 0 31.8175 0L31.1098 3.68282L34.0288 4.21528C34.0288 4.21528 31.2868 4.61462 30.3138 6.0345C29.3783 7.39952 30.0482 8.84656 30.2086 9.19289C30.215 9.20681 30.2206 9.21895 30.2253 9.22923C30.546 9.9371 30.8133 10.4145 31.3111 11.3034C31.4686 11.5846 31.6491 11.907 31.8617 12.2909C32.6382 13.693 31.9151 14.6507 31.7269 14.8639C31.7353 14.879 31.7438 14.8942 31.7523 14.9094C31.9462 14.9056 32.5305 14.8554 33.1443 14.4207C33.8961 13.8882 34.1922 12.9631 34.2499 11.8915C34.2932 11.089 34.2589 10.6423 34.2298 10.2628C34.1994 9.86597 34.1746 9.54269 34.2499 8.96301C34.5153 6.92193 36.8151 5.14707 36.8151 5.14707C36.8151 5.14707 36.7023 6.31283 36.594 7.05504C36.4923 7.75127 36.1959 8.91864 36.1959 8.91864C36.1959 8.91864 37.3892 7.85052 38.7169 7.54312C39.2918 7.41001 39.9995 7.54312 39.9995 7.54312C39.9995 7.54312 39.5129 7.8981 38.6284 8.96301C37.5227 10.2941 36.6577 11.5809 35.9748 13.1339C35.6348 13.907 35.4277 14.3129 35.0018 15.0419C34.39 16.0889 33.1926 16.8715 32.7677 17.1268Z" fill="#FF5757"/>
<path d="M13.6726 29.1088C12.7704 28.5917 12.4268 27.9021 12.4268 27.9021C13.1141 28.3762 13.2 28.4732 13.9303 28.8071C14.9866 29.2901 16.3018 29.343 17.41 28.8793C18.0974 28.5917 18.0974 28.5917 18.7847 28.2038C18.7847 28.2038 18.441 28.6779 17.4959 29.1951C16.1289 29.9432 15.0253 29.8843 13.6726 29.1088Z" fill="#263749"/>
<ellipse cx="11.5344" cy="24.9367" rx="1.47583" ry="1.48065" fill="#263749"/>
<ellipse cx="20.836" cy="24.3089" rx="1.74416" ry="1.74986" fill="#263749"/>
<path fill-rule="evenodd" clip-rule="evenodd" d="M10.5641 29.3523C8.16966 31.5848 6.83944 29.845 6.12999 28.6379C4.84411 26.45 4.22334 21.0027 5.24318 18.5916C6.26302 16.1805 8.30268 17.1628 9.05648 17.7433C9.24575 17.889 9.41359 18.0203 9.57015 18.1427L9.57019 18.1427C10.1715 18.613 10.6065 18.9532 11.4509 19.4846C13.3953 20.7083 13.8562 20.5277 15.1144 20.0344L15.2642 19.9758C16.6331 19.4422 20.6737 16.8324 22.6247 15.5554C25.7256 13.5258 27.9013 14.7963 29.0985 17.2075C31.0357 21.109 30.7391 25.3784 29.3645 28.1468C27.6795 31.5402 25.0191 30.6025 23.3342 29.8881C22.177 29.3975 21.0473 28.7261 19.9679 28.0847C18.0314 26.9339 16.2569 25.8795 14.7764 26.1375C13.1175 26.4266 12.3917 27.2864 11.5923 28.2335C11.2806 28.6027 10.9578 28.9852 10.5641 29.3523ZM12.2488 21.673C11.495 20.6014 8.96761 19.3065 7.46001 21.673C7.46001 21.673 8.25816 21.1818 9.0563 21.4497C9.0563 21.4497 8.3815 21.9688 8.12514 22.4321C7.63096 23.3251 7.62769 24.6181 8.43553 25.5129C9.32233 26.4952 10.3865 26.8278 11.5837 26.4952C12.3874 26.272 12.9448 25.3864 13.0026 24.3967C13.047 23.6376 12.9773 22.7087 12.2488 21.673ZM25.9057 20.5115C24.3981 18.145 21.9151 18.3236 20.3188 20.1989C19.6537 20.9803 19.1659 21.851 19.1659 23.5477C19.1659 24.9319 19.8965 25.7856 20.7179 26.0928C22.2698 26.6732 23.896 26.022 24.7085 24.9765C25.5067 23.9496 25.5574 22.2975 25.0632 21.4045C24.8069 20.9412 23.9991 20.1543 23.9991 20.1543C24.7972 19.8864 25.9057 20.5115 25.9057 20.5115Z" fill="#263749"/>
<path d="M49.5645 32.2109C47.71 32.2109 46.2905 31.6528 45.3062 30.5366C44.3306 29.4116 43.8428 27.79 43.8428 25.6719V14.6504C43.8428 12.6641 44.3262 11.1567 45.293 10.1284C46.2686 9.1001 47.6924 8.58594 49.5645 8.58594C51.4365 8.58594 52.856 9.1001 53.8228 10.1284C54.7983 11.1567 55.2861 12.6641 55.2861 14.6504V25.6719C55.2861 27.79 54.7939 29.4116 53.8096 30.5366C52.834 31.6528 51.4189 32.2109 49.5645 32.2109ZM49.604 27.9395C50.3071 27.9395 50.6587 27.2583 50.6587 25.896V14.5713C50.6587 13.4287 50.3159 12.8574 49.6304 12.8574C48.8569 12.8574 48.4702 13.4419 48.4702 14.6108V25.9224C48.4702 26.6431 48.5581 27.1616 48.7339 27.478C48.9097 27.7856 49.1997 27.9395 49.604 27.9395ZM59.1489 32V13.2529H56.3936V8.79688H66.5449V13.2529H63.7896V32H59.1489ZM66.8613 32L69.1025 8.79688H76.9731L79.1748 32H74.7847L74.4551 28.2559H71.6602L71.3701 32H66.8613ZM71.9897 24.5513H74.0991L73.084 12.752H72.873L71.9897 24.5513ZM80.5986 32V8.79688H85.1865V18.0913L87.3486 8.79688H92.0156L89.4185 19.4229L92.5562 32H87.7441L85.2129 20.7676V32H80.5986ZM98.7261 32.2109C96.7925 32.2109 95.3687 31.6704 94.4546 30.5894C93.5405 29.4995 93.0835 27.8999 93.0835 25.7905V8.79688H97.5923V25.606C97.5923 25.9927 97.6143 26.3662 97.6582 26.7266C97.7021 27.0781 97.8032 27.3682 97.9614 27.5967C98.1196 27.8252 98.3745 27.9395 98.7261 27.9395C99.0864 27.9395 99.3457 27.8296 99.5039 27.6099C99.6621 27.3813 99.7588 27.0869 99.7939 26.7266C99.8379 26.3662 99.8599 25.9927 99.8599 25.606V8.79688H104.369V25.7905C104.369 27.8999 103.912 29.4995 102.998 30.5894C102.083 31.6704 100.66 32.2109 98.7261 32.2109Z" fill="white"/>
<path d="M114.296 32L111.804 8.79688H116.339L117.618 23.4438L118.923 8.79688H123.248L124.487 23.4438L125.726 8.79688H130.314L127.783 32H122.219L121.059 20.8335L119.952 32H114.296ZM137.235 32.2109C135.381 32.2109 133.961 31.6528 132.977 30.5366C132.001 29.4116 131.514 27.79 131.514 25.6719V14.6504C131.514 12.6641 131.997 11.1567 132.964 10.1284C133.939 9.1001 135.363 8.58594 137.235 8.58594C139.107 8.58594 140.527 9.1001 141.494 10.1284C142.469 11.1567 142.957 12.6641 142.957 14.6504V25.6719C142.957 27.79 142.465 29.4116 141.48 30.5366C140.505 31.6528 139.09 32.2109 137.235 32.2109ZM137.275 27.9395C137.978 27.9395 138.33 27.2583 138.33 25.896V14.5713C138.33 13.4287 137.987 12.8574 137.301 12.8574C136.528 12.8574 136.141 13.4419 136.141 14.6108V25.9224C136.141 26.6431 136.229 27.1616 136.405 27.478C136.581 27.7856 136.871 27.9395 137.275 27.9395ZM144.829 32V8.79688H151.948C153.135 8.79688 154.031 9.06934 154.638 9.61426C155.244 10.1504 155.648 10.9062 155.851 11.8818C156.062 12.8486 156.167 13.9868 156.167 15.2964C156.167 16.562 156.004 17.5728 155.679 18.3286C155.363 19.0845 154.761 19.6074 153.873 19.8975C154.603 20.0469 155.112 20.4116 155.402 20.9917C155.701 21.563 155.851 22.3057 155.851 23.2197V32H151.276V22.9165C151.276 22.2397 151.135 21.8223 150.854 21.6641C150.582 21.4971 150.138 21.4136 149.522 21.4136V32H144.829ZM149.549 17.3926H150.669C151.311 17.3926 151.632 16.6938 151.632 15.2964C151.632 14.3911 151.562 13.7979 151.421 13.5166C151.28 13.2354 151.017 13.0947 150.63 13.0947H149.549V17.3926ZM157.696 32V8.79688H162.337V28.0449H167.109V32H157.696ZM168.428 32V8.79688H174.809C176.479 8.79688 177.735 9.2627 178.579 10.1943C179.423 11.1172 179.845 12.4707 179.845 14.2549V25.1182C179.845 27.3154 179.458 29.0117 178.685 30.207C177.92 31.4023 176.575 32 174.65 32H168.428ZM173.095 27.8999H173.899C174.751 27.8999 175.178 27.4868 175.178 26.6606V14.6899C175.178 13.9165 175.072 13.4199 174.861 13.2002C174.659 12.9717 174.242 12.8574 173.609 12.8574H173.095V27.8999Z" fill="#FF5757"/>
</svg>
