<svg width="150" height="150" viewBox="0 0 150 150" fill="none" xmlns="http://www.w3.org/2000/svg">
<g id="Frame 2597" clip-path="url(#clip0_871_6701)">
<g id="Group 10664">
<path id="cuting ring" fill-rule="evenodd" clip-rule="evenodd" d="M75.5 136C108.913 136 136 108.913 136 75.5C136 68.0591 134.657 60.9319 132.199 54.3477C132.123 54.5552 131.768 55.1643 130.126 56.3583C129.486 56.8234 129.087 57.1078 128.806 57.308C128.483 57.5375 128.316 57.6564 128.121 57.8101C129.988 63.3661 131 69.3149 131 75.5C131 106.152 106.152 131 75.5 131C44.8482 131 20 106.152 20 75.5C20 44.8482 44.8482 20 75.5 20C88.2743 20 100.041 24.3157 109.42 31.5687C108.768 30.3653 107.581 29.3011 106.32 28.17C105.41 27.3537 104.461 26.5026 103.646 25.5394C102.19 23.8187 102.022 21.5896 102.003 21.0985C93.999 17.1922 85.0055 15 75.5 15C42.0868 15 15 42.0868 15 75.5C15 108.913 42.0868 136 75.5 136Z" fill="#FF5757"/>
<g id="Group 10661">
<path id="Face" fill-rule="evenodd" clip-rule="evenodd" d="M125.756 57.7002C127.854 63.4039 129 69.5682 129 76C129 105.271 105.271 129 76 129C46.7289 129 23 105.271 23 76C23 46.7289 46.7289 23 76 23C90.9178 23 104.396 29.1633 114.027 39.0823C113.979 38.0461 113.615 35.5788 111.484 32.4381C109.486 29.4935 107.298 27.2062 105.803 25.7113C105.679 25.5869 105.549 25.4634 105.418 25.3382C103.969 23.9593 102.29 22.3608 104.757 16.7423C107.448 10.6134 122.546 0 122.546 0L120.154 12.4072L130.02 14.201C130.02 14.201 120.752 15.5464 117.463 20.3299C114.302 24.9286 116.566 29.8035 117.108 30.9703C117.13 31.0172 117.148 31.0581 117.164 31.0928C118.248 33.4776 119.152 35.0859 120.834 38.0806C121.367 39.0279 121.977 40.114 122.695 41.4072C125.321 46.1337 122.873 49.3611 122.238 50.0767C122.267 50.1274 122.295 50.1782 122.324 50.229C122.977 50.2165 124.954 50.0482 127.03 48.5825C129.571 46.7887 130.572 43.6721 130.767 40.0619C130.914 37.3581 130.798 35.8531 130.699 34.5747C130.596 33.2379 130.513 32.1488 130.767 30.1959C131.664 23.3196 139.438 17.3402 139.438 17.3402C139.438 17.3402 139.056 21.2676 138.69 23.768C138.347 26.1136 137.345 30.0464 137.345 30.0464C137.345 30.0464 141.378 26.448 145.865 25.4124C147.809 24.9639 150.2 25.4124 150.2 25.4124C150.2 25.4124 148.556 26.6082 145.566 30.1959C141.829 34.6804 138.906 39.0155 136.597 44.2474C135.448 46.852 134.748 48.2194 133.309 50.6753C131.24 54.2038 127.191 56.8411 125.756 57.7002Z" fill="#FF5757"/>
<path id="Vector 6914" d="M61.2108 98.0655C58.1616 96.3231 57 94 57 94C59.3232 95.5971 59.6136 95.9241 62.082 97.0491C65.6521 98.6763 70.0974 98.8544 73.8432 97.2921C76.1664 96.3231 76.1664 96.3231 78.4896 95.0164C78.4896 95.0164 77.328 96.6135 74.1336 98.356C69.5129 100.876 65.7829 100.678 61.2108 98.0655Z" fill="#263749"/>
<g id="Group 10662">
<ellipse id="Ellipse 1998" cx="53.9882" cy="84.0118" rx="4.98823" ry="4.98823" fill="#263749"/>
<ellipse id="Ellipse 1997" cx="85.4286" cy="81.8952" rx="5.89518" ry="5.89518" fill="#263749"/>
</g>
<path id="Subtract" fill-rule="evenodd" clip-rule="evenodd" d="M50.7073 98.8869C42.6144 106.408 38.1183 100.547 35.7204 96.4801C31.3742 89.1093 29.276 70.7576 32.723 62.6347C36.17 54.5118 43.064 57.8212 45.6118 59.7767C46.2516 60.2677 46.8189 60.71 47.3481 61.1225C49.3806 62.7068 50.8509 63.853 53.7047 65.6432C60.2767 69.7659 61.8345 69.1571 66.0874 67.4952L66.0877 67.4951C66.2521 67.4309 66.4206 67.365 66.5935 67.2979C71.2205 65.5001 84.8775 56.708 91.4718 52.4059C101.953 45.5681 109.306 49.8487 113.353 57.9716C119.9 71.1156 118.898 85.4992 114.252 94.8255C108.557 106.258 99.5647 103.099 93.8697 100.692C89.9585 99.0391 86.1401 96.7774 82.4919 94.6165L82.4919 94.6165C75.9466 90.7396 69.949 87.1871 64.9449 88.0564C59.3378 89.0304 56.8847 91.9272 54.1828 95.1177L54.1827 95.1177C53.1293 96.3616 52.0381 97.6502 50.7073 98.8869ZM56.4038 73.0159C53.856 69.4057 45.3134 65.0434 40.2178 73.0159C40.2178 73.0159 42.9155 71.3612 45.6132 72.2638C45.6132 72.2638 43.3324 74.0124 42.4659 75.5731C40.7956 78.5816 40.7846 82.9377 43.515 85.9524C46.5124 89.2617 50.1093 90.3821 54.1558 89.2617C56.8723 88.5096 58.7562 85.5262 58.9516 82.1918C59.1014 79.6346 58.8662 76.5051 56.4038 73.0159ZM102.563 69.1015C97.4669 61.1291 89.0743 61.7307 83.679 68.0485C81.4309 70.681 79.7824 73.6143 79.7824 79.3304C79.7824 83.9935 82.2516 86.8697 85.0278 87.9046C90.2732 89.8601 95.7698 87.666 98.5161 84.1439C101.214 80.6842 101.385 75.1185 99.715 72.11C98.8485 70.5493 96.1181 67.8982 96.1181 67.8982C98.8158 66.9956 102.563 69.1015 102.563 69.1015Z" fill="#263749"/>
</g>
</g>
</g>
<defs>
<clipPath id="clip0_871_6701">
<rect width="150" height="150" fill="white"/>
</clipPath>
</defs>
</svg>
