<svg width="21" height="22" viewBox="0 0 21 22" fill="none" xmlns="http://www.w3.org/2000/svg">
<g clip-path="url(#clip0_1067_3234)">
<path d="M9.1875 11H19.6875M9.1875 18.875H19.6875M9.1875 3.125H19.6875M1.3125 3.125C1.3125 3.84987 1.90013 4.4375 2.625 4.4375C3.34987 4.4375 3.9375 3.84987 3.9375 3.125C3.9375 2.40013 3.34987 1.8125 2.625 1.8125C1.90013 1.8125 1.3125 2.40013 1.3125 3.125ZM1.3125 18.875C1.3125 19.5999 1.90013 20.1875 2.625 20.1875C3.34987 20.1875 3.9375 19.5999 3.9375 18.875C3.9375 18.1501 3.34987 17.5625 2.625 17.5625C1.90013 17.5625 1.3125 18.1501 1.3125 18.875ZM1.3125 11C1.3125 11.7249 1.90013 12.3125 2.625 12.3125C3.34987 12.3125 3.9375 11.7249 3.9375 11C3.9375 10.2751 3.34987 9.6875 2.625 9.6875C1.90013 9.6875 1.3125 10.2751 1.3125 11Z" stroke="white" stroke-width="2" stroke-linecap="round"/>
</g>
<defs>
<clipPath id="clip0_1067_3234">
<rect width="21" height="21" fill="white" transform="translate(0 0.5)"/>
</clipPath>
</defs>
</svg>
