<svg width="22" height="23" viewBox="0 0 22 23" fill="none" xmlns="http://www.w3.org/2000/svg">
<g id="Calendar ">
<path id="Vector" d="M17 1.5V3.5M5 1.5V3.5" stroke="#FF5757" stroke-width="1.5" stroke-linecap="round" stroke-linejoin="round"/>
<path id="Vector_2" d="M1.5 11.7432C1.5 7.38594 1.5 5.20728 2.75212 3.85364C4.00424 2.5 6.01949 2.5 10.05 2.5H11.95C15.9805 2.5 17.9958 2.5 19.2479 3.85364C20.5 5.20728 20.5 7.38594 20.5 11.7432V12.2568C20.5 16.6141 20.5 18.7927 19.2479 20.1464C17.9958 21.5 15.9805 21.5 11.95 21.5H10.05C6.01949 21.5 4.00424 21.5 2.75212 20.1464C1.5 18.7927 1.5 16.6141 1.5 12.2568V11.7432Z" stroke="#FF5757" stroke-width="1.5" stroke-linecap="round" stroke-linejoin="round"/>
<path id="Vector 4046" d="M2 7.5H20" stroke="#FF5757" stroke-width="1.5" stroke-linecap="round" stroke-linejoin="round"/>
</g>
</svg>
