<svg width="23" height="21" viewBox="0 0 23 21" fill="none" xmlns="http://www.w3.org/2000/svg">
<g id="Chat Bubbles">
<path id="Vector" d="M21.9163 10.0821C21.9163 15.1778 17.252 19.3093 11.4997 19.3093C10.8233 19.3101 10.1489 19.2522 9.48448 19.1367C9.00626 19.0535 8.76715 19.0119 8.60022 19.0355C8.43329 19.0591 8.19674 19.1756 7.72362 19.4086C6.38523 20.0676 4.82463 20.3004 3.32375 20.0419C3.8942 19.3922 4.28378 18.6127 4.45569 17.777C4.55986 17.2659 4.30176 16.7693 3.91518 16.4058C2.1594 14.755 1.08301 12.5304 1.08301 10.0821C1.08301 4.98651 5.74736 0.85498 11.4997 0.85498C17.252 0.85498 21.9163 4.98651 21.9163 10.0821Z" stroke="#FF5757" stroke-width="1.5" stroke-linejoin="round"/>
<path id="Vector_2" d="M11.495 10.5H11.5043M15.657 10.5H15.6663M7.33301 10.5H7.34235" stroke="#FF5757" stroke-width="2" stroke-linecap="round" stroke-linejoin="round"/>
</g>
</svg>
