<svg width="26" height="24" viewBox="0 0 26 24" fill="none" xmlns="http://www.w3.org/2000/svg">
<g id="Favourite">
<g id="Vector">
<mask id="path-1-inside-1_1208_535" fill="white">
<path d="M22.3282 1.99269C18.9761 -0.063464 16.0505 0.765142 14.2929 2.08502L14.2929 2.08502C13.5723 2.6262 13.212 2.89679 13 2.89679C12.788 2.89679 12.4277 2.6262 11.7071 2.08502C9.94952 0.765142 7.02386 -0.063464 3.6718 1.99269C-0.727414 4.69117 -1.72285 13.5936 8.42441 21.1042C10.3571 22.5347 11.3235 23.25 13 23.25C14.6765 23.25 15.6429 22.5347 17.5756 21.1042C27.7229 13.5936 26.7274 4.69117 22.3282 1.99269Z"/>
</mask>
<path d="M14.2929 2.08502L19.5929 10.565L19.9558 10.3382L20.298 10.0813L14.2929 2.08502ZM22.3282 1.99269L27.5569 -6.53143V-6.53143L22.3282 1.99269ZM17.5756 21.1042L11.6263 13.0664L11.6263 13.0664L17.5756 21.1042ZM14.2929 2.08502L8.99294 -6.39496L8.63007 -6.16817L8.2879 -5.9112L14.2929 2.08502ZM11.7071 2.08502L17.7121 -5.91122L17.7121 -5.91122L11.7071 2.08502ZM3.6718 1.99269L-1.5569 -6.53143L-1.5569 -6.53143L3.6718 1.99269ZM8.42441 21.1042L14.3737 13.0664V13.0664L8.42441 21.1042ZM20.298 10.0813C19.891 10.3868 19.307 10.6741 18.5499 10.7377C18.1635 10.7702 17.8057 10.7359 17.5092 10.6627C17.2156 10.5902 17.0778 10.5035 17.0995 10.5168L27.5569 -6.53143C20.2138 -11.0357 12.8389 -9.32891 8.28792 -5.91122L20.298 10.0813ZM17.0995 10.5168C15.2784 9.39972 15.5483 8.02119 15.4956 8.4146C15.469 8.6128 15.0906 10.5022 11.6263 13.0664L23.5249 29.142C30.2078 24.1955 34.4054 17.8784 35.3181 11.0732C36.2046 4.4631 33.7773 -2.71586 27.5569 -6.53143L17.0995 10.5168ZM11.6263 13.0664C11.1059 13.4516 10.8256 13.6577 10.6003 13.8132C10.3894 13.9588 10.4236 13.9211 10.6044 13.8278C10.8219 13.7155 11.2063 13.5446 11.7181 13.4162C12.2349 13.2866 12.6836 13.25 13 13.25V33.25C18.4973 33.25 22.0719 30.2174 23.5249 29.142L11.6263 13.0664ZM8.99295 -6.39496L8.99294 -6.39496L19.5929 10.565L19.5929 10.565L8.99295 -6.39496ZM8.2879 -5.9112C7.80875 -5.55136 7.84853 -5.58766 7.97833 -5.67264C8.06029 -5.72629 8.4659 -5.99275 9.07224 -6.26674C9.60325 -6.5067 11.0339 -7.10321 13 -7.10321V12.8968C15.0721 12.8968 16.6273 12.2664 17.308 11.9588C18.064 11.6172 18.6445 11.2493 18.9331 11.0603C19.4762 10.7048 20.0565 10.2626 20.298 10.0812L8.2879 -5.9112ZM17.7121 -5.91122C13.1611 -9.3289 5.78616 -11.0357 -1.5569 -6.53143L8.9005 10.5168C8.92218 10.5035 8.78442 10.5902 8.49082 10.6627C8.19431 10.7359 7.83649 10.7702 7.45013 10.7377C6.693 10.6741 6.10896 10.3868 5.70205 10.0813L17.7121 -5.91122ZM-1.5569 -6.53143C-7.77726 -2.71586 -10.2046 4.4631 -9.31808 11.0732C-8.40537 17.8784 -4.20782 24.1955 2.47514 29.142L14.3737 13.0664C10.9094 10.5022 10.531 8.6128 10.5044 8.4146C10.4517 8.02119 10.7216 9.39972 8.9005 10.5168L-1.5569 -6.53143ZM2.47514 29.142C3.92814 30.2174 7.50274 33.25 13 33.25V13.25C13.3164 13.25 13.7651 13.2866 14.2819 13.4162C14.7938 13.5446 15.1781 13.7155 15.3956 13.8278C15.5764 13.9211 15.6106 13.9588 15.3997 13.8132C15.1744 13.6577 14.8941 13.4516 14.3737 13.0664L2.47514 29.142ZM5.70204 10.0813C5.94351 10.2626 6.52377 10.7048 7.06687 11.0603C7.35548 11.2493 7.93595 11.6172 8.69199 11.9588C9.3727 12.2664 10.9279 12.8968 13 12.8968V-7.10321C14.9661 -7.10321 16.3968 -6.50669 16.9278 -6.26674C17.5341 -5.99275 17.9397 -5.72629 18.0217 -5.67264C18.1515 -5.58767 18.1912 -5.55137 17.7121 -5.91122L5.70204 10.0813Z" fill="#FF5757" mask="url(#path-1-inside-1_1208_535)"/>
</g>
</g>
</svg>
