<svg width="20" height="19" viewBox="0 0 20 19" fill="none" xmlns="http://www.w3.org/2000/svg">
<g clip-path="url(#clip0_510_6088)">
<path d="M18.2514 17.4168L16.6012 15.8335M9.58815 16.6252C10.6175 16.6252 11.6367 16.4306 12.5877 16.0527C13.5386 15.6747 14.4027 15.1207 15.1306 14.4224C15.8584 13.724 16.4358 12.8949 16.8297 11.9824C17.2236 11.07 17.4263 10.092 17.4263 9.10433C17.4263 8.11668 17.2236 7.1387 16.8297 6.22623C16.4358 5.31376 15.8584 4.48467 15.1306 3.7863C14.4027 3.08792 13.5386 2.53394 12.5877 2.15599C11.6367 1.77803 10.6175 1.5835 9.58815 1.5835C7.50934 1.5835 5.51568 2.37587 4.04574 3.7863C2.5758 5.19673 1.75 7.10968 1.75 9.10433C1.75 11.099 2.5758 13.0119 4.04574 14.4224C5.51568 15.8328 7.50934 16.6252 9.58815 16.6252V16.6252Z" stroke="#FF5757" stroke-width="3" stroke-linecap="round" stroke-linejoin="round"/>
</g>
<defs>
<clipPath id="clip0_510_6088">
<rect width="19.8016" height="19" fill="white" transform="translate(0.0996094)"/>
</clipPath>
</defs>
</svg>
