<svg width="15" height="14" viewBox="0 0 15 14" fill="none" xmlns="http://www.w3.org/2000/svg">
<path d="M7.86077 1.73524L9.36112 4.31119C9.57308 4.67509 9.92824 4.93313 10.3398 5.02226L13.2533 5.65317C13.6279 5.73427 13.7757 6.18924 13.5204 6.47499L11.5341 8.69793C11.2535 9.01196 11.1179 9.42948 11.1603 9.84847L11.4606 12.8143C11.4992 13.1956 11.1122 13.4768 10.7615 13.3223L8.03359 12.1202C7.64822 11.9503 7.20921 11.9503 6.82384 12.1202L4.09592 13.3223C3.74525 13.4768 3.35823 13.1956 3.39684 12.8143L3.69713 9.84847C3.73955 9.42948 3.60389 9.01196 3.3233 8.69793L1.33706 6.47499C1.08173 6.18924 1.22956 5.73427 1.60408 5.65317L4.51759 5.02226C4.92918 4.93313 5.28435 4.67509 5.4963 4.31119L6.99665 1.73524C7.18952 1.4041 7.6679 1.40411 7.86077 1.73524Z" fill="#F2C94C" stroke="#F2C94C" stroke-linejoin="round"/>
</svg>
