<svg width="20" height="21" viewBox="0 0 20 21" fill="none" xmlns="http://www.w3.org/2000/svg">
<g id="view-slider">
<path id="Icon" fill-rule="evenodd" clip-rule="evenodd" d="M9.91956 1.75H10.0804C10.6146 1.74999 11.0604 1.74998 11.4247 1.77974C11.8046 1.81078 12.1612 1.87789 12.4985 2.04973C13.0159 2.31338 13.4366 2.73408 13.7003 3.25153C13.8721 3.58879 13.9392 3.94545 13.9703 4.32533C14 4.68956 14 5.1354 14 5.66955V15.8305C14 16.3646 14 16.8104 13.9703 17.1747C13.9392 17.5546 13.8721 17.9112 13.7003 18.2485C13.4366 18.7659 13.0159 19.1866 12.4985 19.4503C12.1612 19.6221 11.8046 19.6892 11.4247 19.7203C11.0604 19.75 10.6146 19.75 10.0805 19.75H9.91955C9.3854 19.75 8.93956 19.75 8.57533 19.7203C8.19544 19.6892 7.83879 19.6221 7.50153 19.4503C6.98408 19.1866 6.56338 18.7659 6.29973 18.2485C6.12789 17.9112 6.06078 17.5546 6.02974 17.1747C5.99998 16.8104 5.99999 16.3646 6 15.8304L6 5.66957C5.99999 5.13542 5.99998 4.68957 6.02974 4.32533C6.06078 3.94545 6.12789 3.58879 6.29973 3.25153C6.56338 2.73408 6.98408 2.31338 7.50153 2.04973C7.83879 1.87789 8.19545 1.81078 8.57533 1.77974C8.93956 1.74998 9.38541 1.74999 9.91956 1.75ZM8.69748 3.27476C8.41036 3.29822 8.27307 3.3401 8.18251 3.38624C7.94731 3.50608 7.75608 3.69731 7.63624 3.93251C7.5901 4.02307 7.54822 4.16036 7.52476 4.44748C7.50058 4.74336 7.5 5.12757 7.5 5.7L7.5 15.8C7.5 16.3724 7.50058 16.7566 7.52476 17.0525C7.54822 17.3396 7.5901 17.4769 7.63624 17.5675C7.75608 17.8027 7.94731 17.9939 8.18251 18.1138C8.27307 18.1599 8.41035 18.2018 8.69748 18.2252C8.99336 18.2494 9.37757 18.25 9.95 18.25H10.05C10.6224 18.25 11.0066 18.2494 11.3025 18.2252C11.5896 18.2018 11.7269 18.1599 11.8175 18.1138C12.0527 17.9939 12.2439 17.8027 12.3638 17.5675C12.4099 17.4769 12.4518 17.3396 12.4752 17.0525C12.4994 16.7566 12.5 16.3724 12.5 15.8V5.7C12.5 5.12757 12.4994 4.74336 12.4752 4.44748C12.4518 4.16035 12.4099 4.02307 12.3638 3.93251C12.2439 3.69731 12.0527 3.50608 11.8175 3.38624C11.7269 3.3401 11.5896 3.29822 11.3025 3.27476C11.0066 3.25058 10.6224 3.25 10.05 3.25H9.95C9.37757 3.25 8.99336 3.25058 8.69748 3.27476ZM1.75 4.75C2.16421 4.75 2.5 5.08579 2.5 5.5L2.5 16C2.5 16.4142 2.16421 16.75 1.75 16.75C1.33579 16.75 1 16.4142 1 16L1 5.5C1 5.08579 1.33579 4.75 1.75 4.75ZM18.25 4.75C18.6642 4.75 19 5.08579 19 5.5V16C19 16.4142 18.6642 16.75 18.25 16.75C17.8358 16.75 17.5 16.4142 17.5 16V5.5C17.5 5.08579 17.8358 4.75 18.25 4.75Z" fill="#FF5757"/>
</g>
</svg>
